<svg width="633" height="617" viewBox="0 0 633 617" fill="none" xmlns="http://www.w3.org/2000/svg">
<rect x="10.5" y="573.5" width="613" height="34" stroke="black" stroke-width="19"/>
<rect x="11" y="147" width="611" height="59" stroke="black" stroke-width="20"/>
<rect x="73" y="208" width="121" height="38" stroke="black" stroke-width="20"/>
<rect x="93" y="252" width="81" height="247" stroke="black" stroke-width="20"/>
<rect x="459" y="252" width="82" height="247" stroke="black" stroke-width="20"/>
<rect x="256" y="208" width="122" height="37" stroke="black" stroke-width="20"/>
<rect x="439" y="208" width="123" height="38" stroke="black" stroke-width="20"/>
<rect x="257" y="498" width="120" height="40" stroke="black" stroke-width="20"/>
<rect x="74" y="499" width="120" height="40" stroke="black" stroke-width="20"/>
<rect x="439" y="500" width="122" height="38" stroke="black" stroke-width="20"/>
<rect x="40.5" y="539.5" width="554" height="34" stroke="black" stroke-width="19"/>
<rect x="316.816" y="1.35927" width="342.632" height="19.6056" transform="rotate(23.3817 316.816 1.35927)" fill="black" stroke="black"/>
<rect x="49.5" y="134.5" width="565" height="20" fill="black" stroke="black"/>
<rect x="19.5" y="195.5" width="595" height="20" fill="black" stroke="black"/>
<rect x="261.164" y="250.175" width="146.205" height="8.57766" transform="rotate(55 261.164 250.175)" fill="black" stroke="black"/>
<rect x="306.723" y="383.696" width="137.6" height="8.57766" transform="rotate(55 306.723 383.696)" fill="black" stroke="black"/>
<rect x="0.122788" y="0.696364" width="146.205" height="8.57767" transform="matrix(-0.573576 0.819152 0.819152 0.573576 370.056 249.196)" fill="black" stroke="black"/>
<rect x="0.214984" y="0.673633" width="50.5922" height="8.57767" transform="matrix(-0.45865 0.888617 0.888617 0.45865 267.301 307.672)" fill="black" stroke="black"/>
<rect x="0.214941" y="0.673647" width="50.5922" height="8.57767" transform="matrix(-0.458706 0.888588 0.888588 0.458706 378.338 385.789)" fill="black" stroke="black"/>
<rect x="0.5" y="-0.5" width="50.5922" height="8.57767" transform="matrix(1 0 0 -1 291 295.578)" fill="black" stroke="black"/>
<rect x="0.5" y="-0.5" width="50.5922" height="8.57767" transform="matrix(1 0 0 -1 291 453.578)" fill="black" stroke="black"/>
<rect x="0.5" y="-0.5" width="50.5922" height="8.57767" transform="matrix(1 0 0 -1 240 371.578)" fill="black" stroke="black"/>
<rect x="0.5" y="-0.5" width="50.5922" height="8.57767" transform="matrix(1 0 0 -1 343 373.578)" fill="black" stroke="black"/>
<rect x="-0.683013" y="-0.183013" width="53.1184" height="8.57767" transform="matrix(-0.5 -0.866025 -0.866025 0.5 277.908 428.997)" fill="black" stroke="black"/>
<rect x="-0.673633" y="-0.214984" width="53.1184" height="8.57767" transform="matrix(-0.45865 -0.888617 -0.888617 0.45865 386.169 353.962)" fill="black" stroke="black"/>
<rect x="0.122788" y="0.696364" width="144.224" height="8.57767" transform="matrix(-0.573576 0.819152 0.819152 0.573576 332.056 373.196)" fill="black" stroke="black"/>
<rect x="-0.261014" y="0.657169" width="342.726" height="18.9534" transform="matrix(-0.918184 0.396155 0.396155 0.918184 315.798 0.861057)" fill="black" stroke="black"/>
<circle cx="240" cy="370" r="20" fill="black"/>
<circle cx="282" cy="294" r="20" fill="black"/>
<circle cx="282" cy="448" r="20" fill="black"/>
<circle cx="350" cy="294" r="20" fill="black"/>
<circle cx="350" cy="448" r="20" fill="black"/>
<circle cx="338" cy="370" r="20" fill="black"/>
<circle cx="293" cy="370" r="20" fill="black"/>
<circle cx="390" cy="370" r="20" fill="black"/>
</svg>
